<svg width="16" height="16" viewBox="0 0 16 16" fill="none" xmlns="http://www.w3.org/2000/svg">
<path fill-rule="evenodd" clip-rule="evenodd" d="M6.34112 1.36719C7.01973 -0.007815 8.98044 -0.00781214 9.65904 1.36719L11.025 4.13491C11.076 4.23821 11.1745 4.30981 11.2885 4.32637L14.3429 4.7702C15.8603 4.99069 16.4662 6.85544 15.3682 7.92573L13.158 10.0801C13.0755 10.1605 13.0379 10.2764 13.0574 10.3899L13.5791 13.4319C13.8383 14.9432 12.2521 16.0957 10.8948 15.3821L8.16295 13.9459C8.06099 13.8923 7.93918 13.8923 7.83721 13.9459L5.10531 15.3821C3.7481 16.0957 2.16185 14.9432 2.42106 13.4319L2.9428 10.3899C2.96227 10.2764 2.92463 10.1605 2.84214 10.0801L0.631989 7.92573C-0.466019 6.85544 0.139879 4.99069 1.65728 4.7702L4.71164 4.32637C4.82564 4.30981 4.92419 4.23821 4.97517 4.13491L6.34112 1.36719ZM8.31394 2.03104C8.18555 1.7709 7.81461 1.7709 7.68622 2.03104L6.32027 4.79876C6.0508 5.34477 5.5299 5.72323 4.92734 5.81078L1.87298 6.25461C1.5859 6.29632 1.47128 6.64911 1.67901 6.8516L3.88916 9.00597C4.32518 9.43098 4.52414 10.0433 4.42121 10.6435L3.89947 13.6855C3.85043 13.9714 4.15053 14.1894 4.4073 14.0544L7.1392 12.6182C7.67815 12.3348 8.32201 12.3348 8.86096 12.6182L11.5929 14.0544C11.8496 14.1894 12.1497 13.9714 12.1007 13.6855L11.5789 10.6435C11.476 10.0433 11.675 9.43098 12.111 9.00597L14.3212 6.8516C14.5289 6.64911 14.4143 6.29632 14.1272 6.25461L11.0728 5.81078C10.4703 5.72323 9.94936 5.34477 9.67989 4.79876L8.31394 2.03104Z" fill="black" fill-opacity="0.8"/>
</svg>
