<svg width="24" height="24" viewBox="0 0 24 24" fill="none" xmlns="http://www.w3.org/2000/svg">
<path d="M14.2893 2.3954L15.3009 4.45683L13.8064 5.9513L12.4939 3.27646C12.2925 2.86618 11.7077 2.86618 11.5063 3.27646L9.50185 7.36136C9.13154 8.116 8.41312 8.63966 7.58136 8.76121L3.08457 9.41839C2.63443 9.48417 2.45422 10.0369 2.77908 10.3554L6.04426 13.5564C6.07077 13.5824 6.09664 13.6089 6.12186 13.6359L4.70391 15.0538C4.68609 15.0293 4.66614 15.0061 4.64414 14.9846L1.37896 11.7835C-0.127183 10.307 0.708333 7.74442 2.79536 7.43941L7.29215 6.78223C7.47154 6.75602 7.6265 6.64307 7.70637 6.48031L9.71087 2.3954C10.6443 0.493203 13.3559 0.493196 14.2893 2.3954Z" fill="black" fill-opacity="0.8"/>
<path d="M19.0912 9.15177L20.8548 7.38825L21.2048 7.43941C23.2919 7.74441 24.1274 10.307 22.6213 11.7835L19.3561 14.9846C19.2273 15.1108 19.1686 15.2921 19.1989 15.4698L19.9682 19.9807C20.3238 22.0658 18.1324 23.6523 16.2625 22.6636L12.2572 20.5458C12.0964 20.4608 11.9039 20.4608 11.743 20.5458L7.73768 22.6636C6.98276 23.0628 6.17544 23.0422 5.50448 22.7385L7.95852 20.2845L10.8082 18.7777C11.5539 18.3834 12.4463 18.3834 13.1921 18.7777L17.1974 20.8956C17.6007 21.1088 18.0733 20.7666 17.9967 20.3169L17.2274 15.806C17.0869 14.982 17.3591 14.1416 17.956 13.5564L21.2211 10.3554C21.546 10.0369 21.3658 9.48417 20.9156 9.41839L19.0912 9.15177Z" fill="black" fill-opacity="0.8"/>
<path d="M22.7072 2.70735C23.0978 2.31683 23.0978 1.68366 22.7072 1.29314C22.3167 0.902613 21.6835 0.902613 21.293 1.29314L1.29302 21.2931C0.902491 21.6837 0.902491 22.3168 1.29302 22.7074C1.68354 23.0979 2.3167 23.0979 2.70723 22.7074L22.7072 2.70735Z" fill="black" fill-opacity="0.8"/>
</svg>
