<svg width="24" height="24" viewBox="0 0 24 24" fill="none" xmlns="http://www.w3.org/2000/svg">
<path fill-rule="evenodd" clip-rule="evenodd" d="M3 5.00015C2.44772 5.00015 2 5.44786 2 6.00015C2 6.55243 2.44772 7.00015 3 7.00015H4V18.2501C4 20.8735 6.12665 23.0001 8.75 23.0001H15.25C17.8734 23.0001 20 20.8735 20 18.2501V7.00015H21C21.5523 7.00015 22 6.55243 22 6.00015C22 5.44786 21.5523 5.00015 21 5.00015H17.8845C17.5043 2.72297 15.5246 0.987305 13.1394 0.987305H10.8606C8.47545 0.987305 6.49571 2.72297 6.11552 5.00015H3ZM8.19131 5.00015H15.8087C15.4655 3.85082 14.4003 3.01297 13.1394 3.01297H10.8606C9.59967 3.01297 8.53446 3.85082 8.19131 5.00015ZM16.776 7.00015C16.8286 7.00858 16.8826 7.01297 16.9376 7.01297C16.9925 7.01297 17.0465 7.00858 17.0991 7.00015H18V18.2501C18 19.7689 16.7688 21.0001 15.25 21.0001H8.75C7.23122 21.0001 6 19.7689 6 18.2501V7.00015H6.90088C6.95349 7.00858 7.00746 7.01297 7.06245 7.01297C7.11744 7.01297 7.17141 7.00858 7.22402 7.00015H16.776Z" fill="white"/>
</svg>
